<?xml version="1.0" encoding="UTF-8"?>
<svg xmlns="http://www.w3.org/2000/svg" xmlns:xlink="http://www.w3.org/1999/xlink" width="55px" height="55px" viewBox="0 0 55 55" version="1.1">
<g id="surface1">
<path style=" stroke:none;fill-rule:nonzero;fill:rgb(9.019608%,55.294118%,11.372549%);fill-opacity:1;" d="M 27.5 31.324219 C 24.511719 31.324219 21.722656 29.828125 20.074219 27.335938 L 22.195312 25.929688 C 23.375 27.707031 25.367188 28.773438 27.5 28.773438 C 29.632812 28.773438 31.625 27.707031 32.804688 25.929688 L 34.925781 27.335938 C 33.277344 29.828125 30.488281 31.324219 27.5 31.324219 Z M 27.5 31.324219 "/>
<path style=" stroke:none;fill-rule:nonzero;fill:rgb(9.019608%,55.294118%,11.372549%);fill-opacity:1;" d="M 32.59375 17.316406 C 31.1875 17.316406 30.042969 18.453125 30.042969 19.859375 C 30.042969 21.269531 31.1875 22.40625 32.59375 22.40625 C 33.996094 22.40625 35.140625 21.269531 35.140625 19.859375 C 35.144531 19.183594 34.882812 18.535156 34.398438 18.050781 C 33.921875 17.574219 33.273438 17.308594 32.59375 17.316406 Z M 32.59375 17.316406 "/>
<path style=" stroke:none;fill-rule:nonzero;fill:rgb(9.019608%,55.294118%,11.372549%);fill-opacity:1;" d="M 22.40625 17.316406 C 21.003906 17.316406 19.859375 18.453125 19.859375 19.859375 C 19.859375 21.269531 21.003906 22.40625 22.40625 22.40625 C 23.8125 22.40625 24.957031 21.269531 24.957031 19.859375 C 24.960938 19.183594 24.691406 18.535156 24.214844 18.050781 C 23.738281 17.574219 23.082031 17.308594 22.40625 17.316406 Z M 22.40625 17.316406 "/>
<path style=" stroke:none;fill-rule:nonzero;fill:rgb(3.921569%,61.960784%,2.745098%);fill-opacity:1;" d="M 29.6875 45.296875 L 27.476562 44.023438 L 32.566406 35.113281 L 40.203125 35.113281 C 40.882812 35.113281 41.53125 34.847656 42.007812 34.371094 C 42.488281 33.894531 42.753906 33.242188 42.753906 32.566406 L 42.753906 14.742188 C 42.753906 14.066406 42.488281 13.421875 42.007812 12.941406 C 41.53125 12.464844 40.882812 12.195312 40.203125 12.199219 L 14.742188 12.199219 C 14.066406 12.195312 13.421875 12.464844 12.941406 12.941406 C 12.464844 13.421875 12.195312 14.066406 12.199219 14.742188 L 12.199219 32.566406 C 12.195312 33.242188 12.464844 33.894531 12.941406 34.371094 C 13.421875 34.847656 14.066406 35.113281 14.742188 35.113281 L 26.203125 35.113281 L 26.203125 37.660156 L 14.742188 37.660156 C 13.390625 37.660156 12.097656 37.125 11.144531 36.171875 C 10.1875 35.214844 9.648438 33.917969 9.648438 32.566406 L 9.648438 14.742188 C 9.648438 13.390625 10.1875 12.097656 11.144531 11.144531 C 12.097656 10.1875 13.390625 9.648438 14.742188 9.648438 L 40.203125 9.648438 C 41.554688 9.648438 42.855469 10.1875 43.808594 11.144531 C 44.765625 12.097656 45.296875 13.390625 45.296875 14.742188 L 45.296875 32.566406 C 45.296875 33.917969 44.765625 35.214844 43.808594 36.171875 C 42.855469 37.125 41.554688 37.660156 40.203125 37.660156 L 34.050781 37.660156 Z M 29.6875 45.296875 "/>
</g>
</svg>
