<?xml version="1.0" encoding="UTF-8"?>
<svg xmlns="http://www.w3.org/2000/svg" xmlns:xlink="http://www.w3.org/1999/xlink" width="50px" height="50px" viewBox="0 0 50 50" version="1.1">
<g id="surface1">
<path style=" stroke:none;fill-rule:nonzero;fill:rgb(3.921569%,61.960784%,2.745098%);fill-opacity:1;" d="M 27.171875 9.78125 C 27.171875 10.984375 26.199219 11.957031 25 11.957031 C 23.800781 11.957031 22.828125 10.984375 22.828125 9.78125 C 22.828125 8.582031 23.800781 7.609375 25 7.609375 C 26.199219 7.609375 27.171875 8.582031 27.171875 9.78125 Z M 27.171875 9.78125 "/>
<path style=" stroke:none;fill-rule:nonzero;fill:rgb(3.921569%,61.960784%,2.745098%);fill-opacity:1;" d="M 44.566406 22.828125 L 48.914062 22.828125 L 48.914062 35.867188 L 44.566406 35.867188 Z M 44.566406 22.828125 "/>
<path style=" stroke:none;fill-rule:nonzero;fill:rgb(3.921569%,61.960784%,2.745098%);fill-opacity:1;" d="M 1.085938 22.828125 L 5.433594 22.828125 L 5.433594 35.867188 L 1.085938 35.867188 Z M 1.085938 22.828125 "/>
<path style=" stroke:none;fill-rule:nonzero;fill:rgb(34.901961%,100%,32.941176%);fill-opacity:1;" d="M 16.375 16.304688 L 5.433594 16.304688 L 5.433594 42.390625 L 44.566406 42.390625 L 44.566406 16.304688 Z M 16.375 16.304688 "/>
<path style=" stroke:none;fill-rule:nonzero;fill:rgb(3.921569%,61.960784%,2.745098%);fill-opacity:1;" d="M 18.476562 27.171875 C 18.476562 28.375 17.503906 29.347656 16.304688 29.347656 C 15.105469 29.347656 14.132812 28.375 14.132812 27.171875 C 14.132812 25.972656 15.105469 25 16.304688 25 C 17.503906 25 18.476562 25.972656 18.476562 27.171875 Z M 18.476562 27.171875 "/>
<path style=" stroke:none;fill-rule:nonzero;fill:rgb(3.921569%,61.960784%,2.745098%);fill-opacity:1;" d="M 35.867188 27.171875 C 35.867188 28.375 34.894531 29.347656 33.695312 29.347656 C 32.496094 29.347656 31.523438 28.375 31.523438 27.171875 C 31.523438 25.972656 32.496094 25 33.695312 25 C 34.894531 25 35.867188 25.972656 35.867188 27.171875 Z M 35.867188 27.171875 "/>
<path style=" stroke:none;fill-rule:nonzero;fill:rgb(2.745098%,31.764706%,1.568627%);fill-opacity:1;" d="M 25 36.957031 C 28 36.957031 30.433594 34.523438 30.433594 31.519531 L 19.566406 31.519531 C 19.566406 34.523438 21.996094 36.957031 25 36.957031 Z M 25 36.957031 "/>
<path style=" stroke:none;fill-rule:nonzero;fill:rgb(0%,0%,0%);fill-opacity:1;" d="M 12.078125 16.71875 C 12.101562 16.785156 12.136719 16.847656 12.175781 16.90625 C 12.214844 16.96875 12.261719 17.023438 12.308594 17.074219 C 12.359375 17.125 12.414062 17.167969 12.476562 17.207031 C 12.535156 17.246094 12.597656 17.28125 12.664062 17.308594 C 12.730469 17.335938 12.796875 17.355469 12.867188 17.371094 C 12.9375 17.382812 13.007812 17.390625 13.078125 17.390625 C 13.152344 17.390625 13.222656 17.382812 13.292969 17.371094 C 13.363281 17.355469 13.429688 17.335938 13.496094 17.308594 C 13.558594 17.28125 13.625 17.246094 13.683594 17.207031 C 13.742188 17.167969 13.796875 17.121094 13.847656 17.074219 C 13.898438 17.023438 13.941406 16.96875 13.984375 16.90625 C 14.023438 16.847656 14.054688 16.785156 14.082031 16.71875 C 14.109375 16.65625 14.132812 16.585938 14.144531 16.515625 C 14.160156 16.445312 14.164062 16.375 14.164062 16.304688 C 14.164062 16.234375 14.160156 16.160156 14.144531 16.09375 C 14.128906 16.023438 14.109375 15.953125 14.082031 15.890625 C 14.054688 15.824219 14.023438 15.757812 13.984375 15.699219 C 13.941406 15.640625 13.898438 15.585938 13.847656 15.535156 C 13.796875 15.484375 13.742188 15.441406 13.683594 15.402344 C 13.625 15.363281 13.558594 15.328125 13.496094 15.300781 C 13.429688 15.273438 13.363281 15.25 13.292969 15.238281 C 13.152344 15.210938 13.007812 15.210938 12.867188 15.238281 C 12.796875 15.25 12.730469 15.273438 12.664062 15.300781 C 12.597656 15.328125 12.535156 15.363281 12.476562 15.402344 C 12.414062 15.441406 12.359375 15.484375 12.308594 15.535156 C 12.261719 15.585938 12.214844 15.640625 12.175781 15.699219 C 12.136719 15.757812 12.101562 15.824219 12.074219 15.890625 C 12.046875 15.953125 12.027344 16.023438 12.011719 16.09375 C 12 16.164062 11.992188 16.234375 11.992188 16.304688 C 11.992188 16.375 12 16.445312 12.011719 16.515625 C 12.027344 16.585938 12.046875 16.652344 12.074219 16.71875 Z M 12.078125 16.71875 "/>
<path style=" stroke:none;fill-rule:nonzero;fill:rgb(0%,0%,0%);fill-opacity:1;" d="M 48.914062 21.738281 L 45.652344 21.738281 L 45.652344 16.304688 C 45.652344 15.703125 45.164062 15.21875 44.566406 15.21875 L 26.085938 15.21875 L 26.085938 12.855469 C 27.351562 12.40625 28.261719 11.199219 28.261719 9.78125 C 28.261719 7.984375 26.796875 6.519531 25 6.519531 C 23.203125 6.519531 21.738281 7.984375 21.738281 9.78125 C 21.738281 11.199219 22.648438 12.40625 23.914062 12.855469 L 23.914062 15.21875 L 16.375 15.21875 C 15.777344 15.21875 15.289062 15.703125 15.289062 16.304688 C 15.289062 16.90625 15.777344 17.390625 16.375 17.390625 L 43.476562 17.390625 L 43.476562 41.304688 L 6.523438 41.304688 L 6.523438 17.390625 L 9.78125 17.390625 C 10.382812 17.390625 10.871094 16.902344 10.871094 16.304688 C 10.871094 15.703125 10.382812 15.21875 9.78125 15.21875 L 5.433594 15.21875 C 4.835938 15.21875 4.347656 15.703125 4.347656 16.304688 L 4.347656 21.738281 L 1.085938 21.738281 C 0.488281 21.738281 0 22.226562 0 22.824219 L 0 35.867188 C 0 36.46875 0.488281 36.957031 1.085938 36.957031 L 4.347656 36.957031 L 4.347656 42.390625 C 4.347656 42.992188 4.835938 43.476562 5.433594 43.476562 L 44.566406 43.476562 C 45.164062 43.476562 45.652344 42.992188 45.652344 42.390625 L 45.652344 36.957031 L 48.914062 36.957031 C 49.515625 36.957031 50 36.46875 50 35.867188 L 50 22.824219 C 50 22.226562 49.515625 21.738281 48.914062 21.738281 Z M 25 8.695312 C 25.601562 8.695312 26.085938 9.183594 26.085938 9.78125 C 26.085938 10.378906 25.601562 10.867188 25 10.867188 C 24.398438 10.867188 23.914062 10.382812 23.914062 9.78125 C 23.914062 9.183594 24.398438 8.695312 25 8.695312 Z M 2.175781 34.78125 L 2.175781 23.914062 L 4.347656 23.914062 L 4.347656 34.78125 Z M 47.828125 34.78125 L 45.652344 34.78125 L 45.652344 23.914062 L 47.828125 23.914062 Z M 47.828125 34.78125 "/>
<path style=" stroke:none;fill-rule:nonzero;fill:rgb(0%,0%,0%);fill-opacity:1;" d="M 16.304688 23.914062 C 14.507812 23.914062 13.042969 25.375 13.042969 27.171875 C 13.042969 28.972656 14.507812 30.433594 16.304688 30.433594 C 18.101562 30.433594 19.566406 28.972656 19.566406 27.171875 C 19.566406 25.375 18.101562 23.914062 16.304688 23.914062 Z M 16.304688 28.261719 C 15.707031 28.261719 15.21875 27.773438 15.21875 27.171875 C 15.21875 26.574219 15.707031 26.085938 16.304688 26.085938 C 16.90625 26.085938 17.390625 26.574219 17.390625 27.171875 C 17.390625 27.773438 16.902344 28.261719 16.304688 28.261719 Z M 16.304688 28.261719 "/>
<path style=" stroke:none;fill-rule:nonzero;fill:rgb(0%,0%,0%);fill-opacity:1;" d="M 33.695312 30.433594 C 35.492188 30.433594 36.957031 28.972656 36.957031 27.175781 C 36.957031 25.375 35.492188 23.914062 33.695312 23.914062 C 31.898438 23.914062 30.433594 25.375 30.433594 27.175781 C 30.433594 28.972656 31.898438 30.433594 33.695312 30.433594 Z M 33.695312 26.085938 C 34.296875 26.085938 34.78125 26.574219 34.78125 27.175781 C 34.78125 27.773438 34.296875 28.261719 33.695312 28.261719 C 33.09375 28.261719 32.609375 27.773438 32.609375 27.175781 C 32.609375 26.574219 33.097656 26.085938 33.695312 26.085938 Z M 33.695312 26.085938 "/>
<path style=" stroke:none;fill-rule:nonzero;fill:rgb(0%,0%,0%);fill-opacity:1;" d="M 19.566406 30.433594 C 18.964844 30.433594 18.480469 30.921875 18.480469 31.523438 C 18.480469 35.117188 21.40625 38.042969 25 38.042969 C 28.59375 38.042969 31.519531 35.117188 31.519531 31.523438 C 31.519531 30.921875 31.035156 30.433594 30.433594 30.433594 Z M 25 35.867188 C 22.976562 35.867188 21.273438 34.480469 20.789062 32.609375 L 29.210938 32.609375 C 28.726562 34.480469 27.023438 35.867188 25 35.867188 Z M 25 35.867188 "/>
</g>
</svg>
